<?xml version="1.0" standalone="no"?>
<!DOCTYPE svg PUBLIC "-//W3C//DTD SVG 20010904//EN"
 "http://www.w3.org/TR/2001/REC-SVG-20010904/DTD/svg10.dtd">
<svg version="1.0" xmlns="http://www.w3.org/2000/svg"
 width="1025.000000pt" height="243.000000pt" viewBox="0 0 1025.000000 243.000000"
 preserveAspectRatio="xMidYMid meet">

<g transform="translate(0.000000,243.000000) scale(0.100000,-0.100000)"
fill="#000000" stroke="none">
<path d="M522 2249 c-47 -31 -75 -86 -122 -244 -23 -77 -80 -264 -126 -415
-47 -151 -87 -293 -90 -315 -5 -38 -3 -42 41 -79 l47 -39 -7 -348 -8 -349 142
0 141 0 0 370 c0 347 1 373 20 424 20 51 73 112 125 142 17 10 18 16 6 100 -7
49 -25 150 -42 224 -41 188 -40 191 24 240 63 47 77 73 77 141 0 62 -30 123
-73 149 -43 27 -112 26 -155 -1z m110 -9 c67 -19 109 -103 88 -180 -8 -31 -23
-49 -65 -80 -64 -47 -73 -72 -56 -150 43 -200 61 -293 66 -350 l6 -65 -33 -20
c-17 -11 -47 -39 -65 -63 -59 -78 -63 -107 -63 -494 l0 -348 -60 0 -60 0 -2
593 -3 592 -2 -591 -3 -591 -25 0 -25 0 -2 476 -3 476 -2 -477 c-3 -435 -5
-478 -20 -478 -15 0 -16 29 -10 338 l5 337 -44 42 c-24 24 -44 51 -44 61 0 10
39 147 86 303 189 628 190 630 255 662 41 20 35 19 81 7z"/>
<path d="M338 2249 c-21 -12 -24 -59 -6 -77 19 -19 66 -15 78 7 29 54 -20 101
-72 70z"/>
<path d="M298 2099 c-25 -14 -24 -65 1 -79 11 -5 24 -10 30 -10 16 0 41 30 41
50 0 21 -25 50 -43 50 -7 0 -20 -5 -29 -11z"/>
<path d="M1738 2011 c-207 -68 -335 -270 -299 -472 25 -148 115 -267 249 -331
55 -26 82 -32 159 -36 123 -6 195 13 288 77 l70 47 3 167 2 167 -134 0 -135 0
23 -52 23 -53 57 -3 57 -3 -3 -82 -3 -82 -69 -35 c-63 -32 -77 -35 -150 -35
-136 1 -240 64 -297 180 -29 60 -31 70 -27 147 3 68 10 93 33 137 58 106 159
163 289 163 88 1 148 -18 213 -68 l32 -24 35 37 c20 21 36 41 36 45 0 14 -69
63 -130 91 -56 27 -79 31 -165 34 -78 2 -113 -1 -157 -16z"/>
<path d="M6112 1598 l3 -413 58 -3 57 -3 0 169 0 169 28 13 c17 9 77 15 170
18 l142 4 0 59 0 59 -97 0 c-94 0 -188 -11 -225 -25 -17 -7 -18 3 -18 119 l0
126 230 0 230 0 0 60 0 60 -290 0 -290 0 2 -412z"/>
<path d="M244 1936 c-12 -31 0 -61 27 -64 31 -4 52 18 47 50 -2 18 -10 24 -36
26 -21 2 -34 -2 -38 -12z"/>
<path d="M202 1788 c-27 -27 -6 -68 35 -68 31 0 52 42 33 65 -15 18 -51 20
-68 3z"/>
<path d="M4409 1737 l21 -35 -135 -252 c-74 -139 -135 -256 -135 -261 0 -16
106 -10 120 6 23 28 169 67 275 72 l100 6 22 -47 23 -46 60 0 61 0 -75 143
c-41 78 -111 210 -155 292 l-79 150 -62 3 -62 3 21 -34z m146 -277 l44 -87
-74 -6 c-40 -4 -97 -15 -124 -26 -28 -10 -51 -17 -51 -15 0 7 101 207 118 232
15 23 16 23 29 6 7 -10 33 -57 58 -104z"/>
<path d="M2432 1536 l3 -224 30 -43 c43 -61 107 -91 205 -97 139 -8 236 33
282 120 22 41 23 54 23 253 l0 210 -52 3 -53 3 0 -193 c0 -208 -4 -225 -53
-262 -37 -27 -156 -35 -209 -13 -67 28 -73 46 -76 269 l-4 198 -49 0 -50 0 3
-224z"/>
<path d="M3247 1754 c-4 -4 -7 -135 -7 -291 l0 -284 53 3 52 3 0 285 0 285
-45 3 c-25 2 -49 0 -53 -4z"/>
<path d="M3537 1753 c-4 -3 -7 -28 -7 -55 l0 -48 105 0 105 0 0 -235 0 -235
55 0 55 0 2 233 3 232 108 3 108 3 -3 52 -3 52 -261 3 c-143 1 -263 -1 -267
-5z"/>
<path d="M5010 1756 c0 -3 0 -133 0 -288 l-1 -283 53 0 53 0 3 101 c3 99 3
101 30 114 15 6 53 14 84 17 l57 6 28 -48 c89 -151 121 -179 216 -190 l57 -7
0 61 0 61 -32 0 c-45 0 -89 30 -115 78 l-22 40 28 12 c16 6 43 27 62 46 28 29
33 42 37 93 5 75 -21 128 -82 162 -39 22 -53 24 -248 27 -115 3 -208 2 -208
-2z m413 -125 c10 -7 17 -26 17 -42 0 -44 -31 -59 -125 -59 -74 0 -117 -6
-172 -24 -23 -7 -23 -6 -23 69 l0 77 143 -4 c103 -2 149 -7 160 -17z"/>
<path d="M6900 1470 l0 -291 53 3 52 3 0 285 0 285 -52 3 -53 3 0 -291z"/>
<path d="M7220 1749 c0 -6 9 -23 20 -39 18 -25 20 -47 22 -276 l3 -249 53 -3
52 -3 0 185 c0 103 4 186 9 186 4 0 79 -83 166 -185 l157 -185 54 0 54 0 -2
288 -3 287 -50 0 -50 0 -5 -199 -5 -199 -160 184 c-209 240 -184 219 -255 219
-37 0 -60 -4 -60 -11z"/>
<path d="M8020 1748 c0 -7 9 -32 20 -55 17 -39 22 -43 54 -43 l36 0 2 -232 3
-233 99 -3 c195 -6 301 26 363 106 80 106 73 293 -15 385 -65 68 -148 86 -399
87 -124 0 -163 -3 -163 -12z m443 -125 c18 -11 42 -35 55 -54 21 -29 23 -44
20 -106 -6 -122 -51 -161 -194 -165 l-89 -3 -3 179 -2 179 90 -6 c62 -4 101
-12 123 -24z"/>
<path d="M8875 1747 c-3 -7 -4 -136 -3 -287 l3 -275 233 -3 232 -2 0 57 0 58
-177 0 -178 0 -3 48 c-3 46 -2 48 30 61 18 8 78 17 133 19 l100 6 3 50 3 51
-94 0 c-58 0 -111 -6 -136 -15 l-42 -14 3 72 3 72 168 3 167 2 0 55 0 55 -220
0 c-169 0 -222 -3 -225 -13z"/>
<path d="M9570 1470 l0 -291 53 3 52 3 3 101 c3 99 3 101 30 114 15 6 52 14
83 17 l57 6 65 -101 c74 -113 97 -130 182 -134 l57 -3 1 58 c2 55 1 57 -24 57
-48 0 -87 21 -113 60 -14 22 -26 44 -26 49 0 5 18 20 40 32 62 35 83 77 78
152 -4 74 -29 115 -85 143 -32 16 -69 19 -245 22 l-208 4 0 -292z m413 161
c22 -17 22 -59 0 -83 -13 -15 -32 -18 -102 -18 -80 0 -122 -6 -178 -24 -23 -7
-23 -6 -23 69 l0 77 143 -4 c103 -2 149 -7 160 -17z"/>
<path d="M157 1642 c-10 -10 -17 -26 -17 -35 0 -15 35 -47 52 -47 11 0 48 38
48 50 0 15 -38 50 -53 50 -8 0 -21 -8 -30 -18z"/>
<path d="M106 1494 c-20 -19 -20 -34 0 -62 21 -30 59 -29 80 3 15 23 15 27 0
50 -19 29 -56 33 -80 9z"/>
<path d="M3207 553 c-11 -10 -8 -151 3 -158 6 -4 10 8 10 28 0 36 12 47 51 47
10 0 19 3 19 8 0 4 -15 7 -32 7 -29 0 -33 3 -33 25 0 23 4 25 48 28 26 2 45 7
42 13 -7 10 -98 13 -108 2z"/>
<path d="M3550 476 c0 -51 4 -86 10 -86 6 0 10 33 10 79 0 44 -4 83 -10 86 -6
4 -10 -25 -10 -79z"/>
<path d="M3814 547 c3 -10 6 -50 6 -88 0 -39 4 -69 10 -69 6 0 10 26 10 58 l0
57 51 -57 c28 -32 55 -58 60 -58 12 0 12 157 -1 165 -6 4 -10 -19 -10 -62 l0
-68 -66 70 c-36 39 -63 62 -60 52z"/>
<path d="M4190 552 c0 -6 5 -14 10 -17 6 -3 10 -37 10 -76 l0 -69 39 0 c56 0
93 33 93 84 0 54 -25 76 -95 83 -38 4 -57 2 -57 -5z m123 -44 c22 -26 22 -40
-4 -72 -14 -17 -30 -26 -50 -26 -29 0 -29 1 -29 58 0 32 3 62 7 66 12 12 57
-3 76 -26z"/>
<path d="M4849 475 c-21 -47 -36 -85 -34 -85 1 0 16 7 31 15 40 20 91 19 103
-2 5 -10 12 -15 15 -12 6 6 -65 169 -74 169 -3 0 -21 -39 -41 -85z m78 -31
c-1 -1 -19 -4 -40 -8 l-38 -7 22 42 21 43 18 -35 c10 -18 17 -35 17 -35z"/>
<path d="M5200 476 l0 -86 55 0 c30 0 55 5 55 10 0 6 -20 10 -45 10 l-45 0 0
69 c0 39 -4 73 -10 76 -6 4 -10 -25 -10 -79z"/>
<path d="M5540 476 l0 -86 55 0 c30 0 55 5 55 10 0 6 -20 10 -45 10 l-45 0 0
69 c0 39 -4 73 -10 76 -6 4 -10 -25 -10 -79z"/>
<path d="M6139 531 c-17 -18 -29 -40 -29 -56 0 -36 50 -85 87 -85 39 0 61 19
65 55 2 25 -1 31 -19 33 -13 2 -23 -1 -23 -7 0 -6 7 -11 15 -11 8 0 15 -6 15
-13 0 -39 -67 -50 -100 -17 -26 26 -25 60 0 88 22 23 74 30 85 12 4 -6 11 -7
17 -4 17 11 -21 34 -55 34 -18 0 -39 -10 -58 -29z"/>
<path d="M6500 491 c0 -61 3 -72 22 -85 12 -9 34 -16 48 -16 14 0 36 7 48 16
19 13 22 24 22 85 0 39 -4 68 -9 65 -5 -3 -6 -26 -4 -51 7 -57 -15 -95 -55
-95 -41 0 -52 17 -52 81 0 32 -4 61 -10 64 -6 4 -10 -20 -10 -64z"/>
<path d="M7130 551 c0 -5 12 -11 28 -13 26 -3 27 -5 30 -75 2 -40 7 -73 12
-73 5 0 10 33 12 72 3 72 3 73 33 78 25 5 27 7 12 13 -27 10 -127 9 -127 -2z"/>
<path d="M7540 543 c0 -11 -14 -48 -30 -82 -17 -35 -29 -66 -26 -68 3 -3 15 2
28 11 29 21 94 21 102 1 3 -8 10 -15 15 -15 13 0 -63 163 -78 168 -6 2 -11 -5
-11 -15z m35 -64 c9 -17 15 -32 13 -33 -6 -6 -68 -15 -68 -11 0 7 33 75 37 75
1 0 10 -14 18 -31z"/>
<path d="M7870 475 c0 -49 3 -85 8 -81 4 4 7 20 7 34 0 22 5 28 27 30 21 3 30
-3 42 -26 15 -29 43 -48 54 -37 3 3 -4 12 -16 21 -25 17 -29 49 -7 58 16 6 20
43 6 64 -4 7 -33 16 -64 19 l-57 6 0 -88z m88 59 c16 -5 22 -13 20 -28 -2 -17
-11 -22 -50 -24 -46 -3 -47 -3 -44 25 2 15 4 29 5 31 2 4 46 2 69 -4z"/>
<path d="M8257 542 c-35 -38 -14 -72 45 -72 42 0 59 -20 38 -45 -14 -17 -53
-20 -81 -5 -12 7 -19 7 -19 1 0 -6 9 -15 19 -21 51 -27 119 6 108 52 -7 26
-30 38 -74 38 -30 0 -39 18 -19 38 13 14 21 14 46 5 34 -13 51 0 21 16 -30 16
-66 13 -84 -7z"/>
<path d="M6890 470 c0 -46 3 -80 7 -77 7 7 4 149 -3 156 -2 2 -4 -33 -4 -79z"/>
</g>
</svg>
