<?xml version="1.0" standalone="no"?>
<!DOCTYPE svg PUBLIC "-//W3C//DTD SVG 20010904//EN"
 "http://www.w3.org/TR/2001/REC-SVG-20010904/DTD/svg10.dtd">
<svg version="1.0" xmlns="http://www.w3.org/2000/svg"
 width="329.000000pt" height="758.000000pt" viewBox="0 0 329.000000 758.000000"
 preserveAspectRatio="xMidYMid meet">

<g transform="translate(0.000000,758.000000) scale(0.100000,-0.100000)"
fill="#000000" stroke="none">
<path d="M2061 7175 c-96 -27 -178 -86 -247 -178 -66 -88 -97 -154 -142 -307
-61 -204 -195 -647 -274 -905 -38 -126 -103 -338 -143 -470 -103 -335 -241
-798 -259 -872 -23 -87 -24 -175 -3 -207 9 -14 38 -37 64 -52 62 -35 119 -89
147 -139 l23 -40 -8 -395 c-4 -217 -10 -655 -14 -972 l-8 -578 407 0 407 0 -8
312 c-4 172 -7 637 -7 1033 l-1 720 28 90 c72 234 191 389 360 468 l68 32 -6
80 c-20 266 -61 497 -196 1100 -46 205 -46 240 2 299 17 20 63 59 103 85 162
110 216 183 238 324 21 140 -13 284 -96 411 -87 130 -284 203 -435 161z m200
-95 c157 -43 277 -279 239 -472 -22 -112 -55 -156 -187 -245 -107 -72 -157
-127 -177 -194 -21 -71 -20 -101 9 -232 128 -562 190 -894 202 -1069 l6 -96
-39 -20 c-226 -115 -382 -383 -414 -712 -8 -81 -1 -969 13 -1723 l3 -167 -38
0 -38 0 -2 2168 c-2 1436 -6 2167 -13 2167 -7 0 -11 -731 -13 -2167 l-2 -2168
-30 0 -30 0 0 2006 c0 1600 -3 2005 -12 2002 -10 -4 -14 -416 -16 -2006 l-2
-2002 -30 0 -30 0 0 1840 c0 1220 -3 1840 -10 1840 -7 0 -10 -620 -10 -1840
l0 -1840 -30 0 -30 0 -2 1678 c-2 1109 -6 1677 -13 1677 -7 0 -11 -568 -13
-1678 l-2 -1677 -30 0 -30 0 0 1515 c0 1003 -3 1515 -10 1515 -7 0 -10 -512
-10 -1515 l0 -1515 -35 0 -35 0 0 1350 c0 893 -3 1350 -10 1350 -7 0 -10 -457
-10 -1350 l0 -1350 -46 0 -46 0 7 367 c21 1133 23 1507 9 1542 -26 63 -85 128
-160 177 -70 44 -74 49 -74 83 0 52 31 175 109 431 38 124 113 369 166 545 53
176 142 469 197 650 55 182 131 434 169 560 91 298 112 353 163 423 108 146
230 194 387 152z"/>
<path d="M1464 7149 c-41 -12 -104 -81 -106 -117 -4 -89 21 -140 86 -171 73
-36 142 -21 190 41 91 121 -26 291 -170 247z"/>
<path d="M1334 6710 c-11 -4 -34 -24 -52 -44 -26 -30 -32 -45 -32 -84 0 -92
62 -148 152 -140 109 11 157 126 94 223 -29 44 -110 66 -162 45z"/>
<path d="M1204 6271 c-68 -31 -94 -114 -54 -178 45 -75 148 -84 207 -19 96
104 -23 257 -153 197z"/>
<path d="M1051 5835 c-112 -95 -7 -273 128 -219 59 23 81 56 81 118 0 31 -6
61 -16 74 -39 56 -141 70 -193 27z"/>
<path d="M950 5443 c-56 -29 -83 -78 -78 -141 4 -41 11 -59 33 -82 50 -52 128
-60 186 -19 26 18 59 83 59 116 0 28 -40 100 -63 116 -39 25 -98 30 -137 10z"/>
<path d="M812 5033 c-76 -37 -107 -147 -62 -221 63 -103 223 -95 275 14 62
131 -82 272 -213 207z"/>
<path d="M620 1701 c-143 -44 -210 -182 -149 -308 63 -129 235 -171 342 -82
37 30 37 31 37 110 l0 79 -70 0 -71 0 16 -31 c12 -22 22 -29 38 -27 19 3 22
-2 25 -38 3 -35 -1 -44 -22 -58 -36 -23 -106 -31 -149 -17 -44 15 -93 68 -106
118 -39 141 141 262 260 174 27 -20 27 -20 44 0 17 18 17 20 0 39 -33 37 -137
58 -195 41z"/>
<path d="M952 1682 c-2 -8 -3 -77 0 -155 5 -153 15 -187 63 -225 62 -49 189
-49 257 0 50 35 58 70 58 240 l0 153 -25 1 -25 2 0 -139 c0 -163 -10 -197 -63
-222 -69 -33 -167 -11 -194 43 -8 16 -13 74 -13 170 l0 145 -26 0 c-15 0 -29
-6 -32 -13z"/>
<path d="M1465 1692 c-3 -3 -5 -99 -5 -214 l0 -208 30 0 30 0 -2 212 c-3 211
-3 211 -26 213 -12 1 -24 -1 -27 -3z"/>
<path d="M1604 1691 c-2 -2 -4 -15 -4 -27 0 -22 4 -23 78 -26 l77 -3 1 -180 2
-180 26 -3 26 -3 0 185 0 186 76 0 c75 0 75 0 72 26 l-3 25 -173 2 c-96 1
-176 0 -178 -2z"/>
<path d="M2171 1677 c9 -20 -2 -50 -80 -212 -50 -103 -91 -190 -91 -192 0 -1
13 -3 30 -3 19 0 33 7 39 19 15 27 63 41 168 48 l92 6 17 -37 c15 -31 23 -36
51 -36 l33 0 -43 88 c-24 48 -70 144 -102 215 -58 125 -59 127 -91 127 -32 0
-33 -1 -23 -23z m87 -186 c23 -43 42 -83 42 -90 0 -7 -23 -11 -64 -11 -36 0
-76 -4 -90 -10 -16 -6 -26 -6 -26 0 0 15 82 190 89 190 4 0 26 -35 49 -79z"/>
<path d="M2517 1693 c-1 -1 -1 -96 1 -212 l3 -211 24 0 c24 0 25 2 25 80 0 92
7 100 87 100 l49 0 37 -76 c30 -61 44 -78 72 -90 52 -21 65 -18 65 16 0 22 -5
30 -18 30 -23 0 -43 22 -71 77 l-21 42 27 15 c42 21 61 47 68 91 7 49 -18 104
-55 122 -19 9 -286 24 -293 16z m271 -69 c27 -18 30 -69 5 -96 -12 -14 -31
-18 -82 -18 -36 0 -83 -4 -103 -9 l-38 -9 0 74 0 74 98 0 c72 0 103 -4 120
-16z"/>
<path d="M450 868 l0 -218 30 0 29 0 3 93 3 92 85 5 c85 5 85 5 88 34 l4 28
-91 -3 -91 -4 0 68 0 67 121 0 120 0 -3 26 -3 26 -148 2 -147 1 0 -217z"/>
<path d="M883 1082 l-23 -3 0 -215 0 -215 28 3 27 3 3 209 c1 115 -1 212 -5
216 -5 3 -18 4 -30 2z"/>
<path d="M1380 924 c0 -90 -4 -164 -8 -164 -5 0 -69 72 -143 160 -131 157
-134 160 -173 160 l-39 0 21 -23 c21 -22 22 -32 22 -215 l0 -192 30 0 29 0 3
151 3 151 125 -151 c114 -138 128 -151 158 -151 l32 0 -2 217 -3 218 -27 2
-28 2 0 -165z"/>
<path d="M1557 1082 c-12 -2 -16 -9 -13 -19 3 -8 6 -17 6 -19 0 -3 11 -9 25
-14 l25 -10 0 -186 0 -186 114 4 c110 3 116 4 153 34 21 16 51 55 66 85 24 46
28 62 24 111 -6 73 -39 131 -96 168 -38 25 -55 30 -110 31 -36 0 -91 1 -121 3
-30 1 -63 0 -73 -2z m272 -80 c67 -50 89 -138 52 -210 -32 -62 -70 -82 -158
-82 l-73 0 0 153 c0 85 3 157 8 161 13 15 145 -2 171 -22z"/>
<path d="M2097 1082 l-37 -3 2 -212 3 -212 168 -3 167 -2 0 30 0 30 -135 0
-136 0 3 63 3 62 83 3 82 3 0 30 0 31 -85 -3 -85 -4 0 68 0 68 120 -3 120 -3
0 30 0 30 -117 0 c-65 0 -135 -1 -156 -3z"/>
<path d="M2510 868 l0 -218 25 0 c25 0 25 1 25 78 0 47 5 83 12 90 7 7 38 12
70 12 l58 0 34 -67 c40 -81 61 -102 110 -110 35 -5 36 -5 36 26 0 23 -4 31
-18 31 -11 0 -26 8 -34 18 -24 27 -61 106 -52 109 75 25 107 95 79 170 -25 64
-49 73 -210 76 l-135 2 0 -217z m279 138 c29 -26 25 -73 -9 -97 -19 -13 -50
-18 -122 -21 l-98 -4 0 66 c0 37 3 70 8 74 4 4 50 6 103 4 79 -2 101 -7 118
-22z"/>
<path d="M1072 260 c0 -19 2 -27 5 -17 2 9 2 25 0 35 -3 9 -5 1 -5 -18z"/>
<path d="M920 271 c0 -5 7 -12 16 -15 14 -5 15 -4 4 9 -14 17 -20 19 -20 6z"/>
<path d="M1572 255 c0 -16 2 -22 5 -12 2 9 2 23 0 30 -3 6 -5 -1 -5 -18z"/>
<path d="M2082 255 c0 -16 2 -22 5 -12 2 9 2 23 0 30 -3 6 -5 -1 -5 -18z"/>
<path d="M2452 255 c0 -16 2 -22 5 -12 2 9 2 23 0 30 -3 6 -5 -1 -5 -18z"/>
<path d="M1335 240 c3 -5 8 -10 11 -10 2 0 4 5 4 10 0 6 -5 10 -11 10 -5 0 -7
-4 -4 -10z"/>
</g>
</svg>
